<svg width="180" height="60" viewBox="0 0 180 60" fill="none" xmlns="http://www.w3.org/2000/svg">
<path fill-rule="evenodd" clip-rule="evenodd" d="M80.5441 57.4133C80.5464 57.4146 80.5488 57.4159 80.5511 57.4172C81.5665 57.9602 82.6932 58.2271 83.9191 58.2271C84.9113 58.2271 85.8321 58.0538 86.6737 57.6985C87.527 57.3427 88.2518 56.823 88.8391 56.1397C89.0391 55.9072 89.0217 55.5587 88.7996 55.3472L87.445 54.0571C87.3329 53.9504 87.1827 53.8932 87.0281 53.8985C86.8734 53.9038 86.7274 53.9711 86.623 54.0852C85.9132 54.8603 85.0613 55.2367 84.032 55.2367C83.3448 55.2367 82.7489 55.0899 82.2302 54.8086C81.7088 54.5151 81.3074 54.1169 81.0165 53.6078C80.7271 53.1014 80.5763 52.5189 80.5763 51.8455C80.5763 51.172 80.7271 50.5896 81.0165 50.0831C81.3071 49.5745 81.7074 49.1828 82.2269 48.9003L82.2303 48.8984L82.2336 48.8966C82.7518 48.6057 83.3464 48.4542 84.032 48.4542C85.0638 48.4542 85.9163 48.8272 86.6253 49.5922C86.7296 49.7048 86.8746 49.771 87.028 49.7763C87.1814 49.7816 87.3305 49.7254 87.4423 49.6202L88.797 48.3462C89.0214 48.1351 89.04 47.7848 88.8391 47.5512C88.2529 46.8692 87.5344 46.3493 86.6913 45.9931C85.8493 45.6373 84.928 45.4639 83.9353 45.4639C82.7076 45.4639 81.5796 45.7369 80.5638 46.2918C79.5605 46.835 78.7639 47.5953 78.1835 48.5666C77.5992 49.5445 77.3118 50.6425 77.3118 51.8455C77.3118 53.0462 77.5927 54.1427 78.1648 55.1199L78.1674 55.1244C78.7473 56.0949 79.5427 56.8596 80.5441 57.4133ZM104.566 46.2011C104.566 45.883 104.308 45.6251 103.99 45.6251H101.893C101.575 45.6251 101.317 45.883 101.317 46.2011V50.2858H96.6315V46.2011C96.6315 45.883 96.3737 45.6251 96.0556 45.6251H93.9591C93.641 45.6251 93.3831 45.883 93.3831 46.2011V57.4898C93.3831 57.8079 93.641 58.0658 93.9591 58.0658H96.0556C96.3737 58.0658 96.6315 57.8079 96.6315 57.4898V53.2278H101.317V57.4898C101.317 57.8079 101.575 58.0658 101.893 58.0658H103.99C104.308 58.0658 104.566 57.8079 104.566 57.4898V46.2011ZM119.605 55.732C119.605 55.4139 119.347 55.1561 119.029 55.1561H113.235V53.1955H118.11C118.428 53.1955 118.686 52.9376 118.686 52.6196V50.894C118.686 50.5759 118.428 50.318 118.11 50.318H113.235V48.5349H118.804C119.122 48.5349 119.379 48.277 119.379 47.9589V46.2011C119.379 45.883 119.122 45.6251 118.804 45.6251H110.563C110.245 45.6251 109.987 45.883 109.987 46.2011V57.4898C109.987 57.8079 110.245 58.0658 110.563 58.0658H119.029C119.347 58.0658 119.605 57.8079 119.605 57.4898V55.732ZM126.72 57.4152L126.724 57.4172C127.739 57.9602 128.866 58.2271 130.092 58.2271C131.084 58.2271 132.005 58.0538 132.847 57.6984C133.7 57.3427 134.425 56.823 135.012 56.1397C135.212 55.9072 135.195 55.5587 134.973 55.3472L133.618 54.0571C133.506 53.9504 133.356 53.8932 133.201 53.8985C133.046 53.9038 132.9 53.9711 132.796 54.0852C132.086 54.8603 131.234 55.2367 130.205 55.2367C129.518 55.2367 128.922 55.0899 128.403 54.8086C127.882 54.5151 127.48 54.1169 127.189 53.6078C126.9 53.1014 126.749 52.5189 126.749 51.8455C126.749 51.172 126.9 50.5896 127.189 50.0831C127.48 49.5745 127.88 49.1828 128.4 48.9003C128.402 48.8991 128.404 48.8978 128.407 48.8966C128.925 48.6057 129.519 48.4542 130.205 48.4542C131.237 48.4542 132.089 48.8272 132.798 49.5922C132.903 49.7048 133.048 49.771 133.201 49.7763C133.354 49.7816 133.504 49.7254 133.615 49.6202L134.97 48.3462C135.194 48.1351 135.213 47.7848 135.012 47.5512C134.426 46.8692 133.707 46.3493 132.864 45.9931C132.022 45.6373 131.101 45.4639 130.108 45.4639C128.881 45.4639 127.753 45.7368 126.737 46.2917C125.734 46.8349 124.937 47.5952 124.357 48.5666C123.772 49.5445 123.485 50.6425 123.485 51.8455C123.485 53.0462 123.766 54.1427 124.338 55.1199L124.34 55.1244C124.92 56.0949 125.716 56.8596 126.717 57.4133L126.72 57.4152ZM150.583 46.5954L146.185 51.2776L150.902 57.1284C151.041 57.301 151.069 57.5383 150.973 57.7384C150.877 57.9384 150.675 58.0658 150.453 58.0658H148.002C147.832 58.0658 147.671 57.9909 147.562 57.8611L143.988 53.6219L142.805 54.8372V57.4898C142.805 57.8079 142.547 58.0658 142.229 58.0658H140.132C139.814 58.0658 139.556 57.8079 139.556 57.4898V46.2011C139.556 45.883 139.814 45.6251 140.132 45.6251H142.229C142.547 45.6251 142.805 45.883 142.805 46.2011V50.563L147.394 45.8014C147.502 45.6888 147.652 45.6251 147.808 45.6251H150.163C150.393 45.6251 150.6 45.7616 150.692 45.9724C150.783 46.1832 150.74 46.428 150.583 46.5954ZM164.471 55.732C164.471 55.4139 164.213 55.1561 163.895 55.1561H158.101V53.1955H162.976C163.294 53.1955 163.552 52.9376 163.552 52.6196V50.894C163.552 50.5759 163.294 50.318 162.976 50.318H158.101V48.5349H163.669C163.987 48.5349 164.245 48.277 164.245 47.9589V46.2011C164.245 45.883 163.987 45.6251 163.669 45.6251H155.429C155.111 45.6251 154.853 45.883 154.853 46.2011V57.4898C154.853 57.8079 155.111 58.0658 155.429 58.0658H163.895C164.213 58.0658 164.471 57.8079 164.471 57.4898V55.732ZM176.694 57.8194C176.802 57.9738 176.978 58.0658 177.166 58.0658H179.424C179.639 58.0658 179.836 57.9463 179.935 57.7558C180.034 57.5653 180.019 57.3355 179.896 57.1596L177.69 54.0086C178.258 53.6868 178.725 53.2626 179.079 52.732C179.571 52.0108 179.806 51.1635 179.806 50.2167C179.806 49.2961 179.59 48.4692 179.134 47.7603C178.68 47.0529 178.028 46.5213 177.207 46.1587C176.397 45.7964 175.465 45.6251 174.425 45.6251H169.78C169.462 45.6251 169.204 45.883 169.204 46.2011V57.4898C169.204 57.8079 169.462 58.0658 169.78 58.0658H171.877C172.195 58.0658 172.453 57.8079 172.453 57.4898V54.7759H174.425C174.475 54.7759 174.524 54.7756 174.57 54.7749L176.694 57.8194ZM176.542 50.2167C176.542 49.6348 176.358 49.259 176.044 49.0014C175.714 48.7314 175.172 48.551 174.328 48.551H172.453V51.8985H174.328C175.17 51.8985 175.71 51.7192 176.041 51.4505C176.359 51.181 176.542 50.7964 176.542 50.2167Z" fill="#014EA6"/>
<path fill-rule="evenodd" clip-rule="evenodd" d="M89.3008 22.0109C89.3008 21.6928 89.0429 21.4349 88.7249 21.4349H86.6284C86.3103 21.4349 86.0524 21.6928 86.0524 22.0109V26.0956H81.3664V22.0109C81.3664 21.6928 81.1086 21.4349 80.7905 21.4349H78.694C78.3759 21.4349 78.118 21.6928 78.118 22.0109V33.2997C78.118 33.6177 78.3759 33.8756 78.694 33.8756H80.7905C81.1086 33.8756 81.3664 33.6177 81.3664 33.2997V29.0376H86.0524V33.2997C86.0524 33.6177 86.3103 33.8756 86.6284 33.8756H88.7249C89.0429 33.8756 89.3008 33.6177 89.3008 33.2997V22.0109ZM92.8503 30.9315L92.8519 30.9342C93.4328 31.9063 94.2349 32.6713 95.2472 33.2245L95.2518 33.227C96.2679 33.7704 97.4002 34.0369 98.6359 34.0369C99.8716 34.0369 101.004 33.7704 102.02 33.227L102.025 33.2245C103.037 32.6713 103.839 31.9063 104.42 30.9342C105.004 29.9563 105.292 28.8583 105.292 27.6553C105.292 26.4523 105.004 25.3543 104.42 24.3764C103.839 23.4038 103.036 22.6436 102.022 22.1009C101.006 21.546 99.8728 21.2737 98.6359 21.2737C97.399 21.2737 96.2659 21.546 95.2495 22.1009C94.2346 22.6443 93.4318 23.4108 92.8511 24.3938C92.2678 25.3705 91.9801 26.4625 91.9801 27.6553C91.9801 28.8487 92.2681 29.9453 92.8503 30.9315ZM118.344 33.3009C118.345 33.6185 118.603 33.8756 118.92 33.8756H120.904C121.057 33.8756 121.203 33.8148 121.311 33.7066C121.419 33.5984 121.48 33.4517 121.48 33.2988L121.464 22.0101C121.463 21.6923 121.205 21.4349 120.888 21.4349H119.162C118.958 21.4349 118.769 21.5429 118.666 21.7188L114.755 28.3656L110.77 21.7149C110.666 21.5412 110.479 21.4349 110.276 21.4349H108.551C108.233 21.4349 107.975 21.6928 107.975 22.0109V33.2997C107.975 33.6177 108.233 33.8756 108.551 33.8756H110.55C110.868 33.8756 111.126 33.6177 111.126 33.2997V27.9682L113.767 32.3089C113.872 32.4806 114.058 32.5855 114.259 32.5855H115.195C115.397 32.5855 115.585 32.4792 115.689 32.3055L118.333 27.8919L118.344 33.3009ZM134.608 31.5418C134.608 31.2237 134.35 30.9659 134.032 30.9659H128.238V29.0053H133.113C133.431 29.0053 133.689 28.7475 133.689 28.4294V26.7038C133.689 26.3857 133.431 26.1278 133.113 26.1278H128.238V24.3447H133.806C134.124 24.3447 134.382 24.0868 134.382 23.7687V22.0109C134.382 21.6928 134.124 21.4349 133.806 21.4349H125.566C125.248 21.4349 124.99 21.6928 124.99 22.0109V33.2997C124.99 33.6177 125.248 33.8756 125.566 33.8756H134.032C134.35 33.8756 134.608 33.6177 134.608 33.2997V31.5418ZM101.587 25.9091L101.585 25.9053C101.292 25.3836 100.895 24.9884 100.389 24.7081L100.385 24.706L100.382 24.7042C99.8744 24.4141 99.2971 24.264 98.6359 24.264C97.9747 24.264 97.3974 24.4141 96.8897 24.7042C96.8874 24.7055 96.8851 24.7068 96.8829 24.7081C96.3765 24.9884 95.9798 25.3836 95.687 25.9053L95.6848 25.9091C95.3947 26.4168 95.2447 26.9941 95.2447 27.6553C95.2447 28.3156 95.3944 28.8994 95.686 29.4196C95.9782 29.9303 96.3758 30.3281 96.8863 30.6205C97.3943 30.901 97.973 31.0465 98.6359 31.0465C99.2988 31.0465 99.8775 30.901 100.386 30.6205C100.896 30.3281 101.294 29.9303 101.586 29.4196C101.877 28.8994 102.027 28.3156 102.027 27.6553C102.027 26.9941 101.877 26.4168 101.587 25.9091Z" fill="#014EA6"/>
<path fill-rule="evenodd" clip-rule="evenodd" d="M51.8358 51.8859C51.8358 51.8862 51.8358 51.8861 51.8358 51.8861L51.8358 51.8859Z" fill="#014EA6"/>
<path d="M28.7978 6.75957L51.8361 20.5825V43.7586L52.2054 44.2493L54.2204 47.0025L57.5957 42.4066V20.5825C57.5957 18.5594 56.5342 16.6846 54.7994 15.6437L31.7611 1.82078C29.9371 0.726408 27.6585 0.726406 25.8346 1.82078L2.79629 15.6437C1.06148 16.6846 0 18.5594 0 20.5825V51.8789C0 55.0598 2.57865 57.6385 5.75957 57.6385H50.6431C50.6084 57.595 50.5743 57.5508 50.541 57.5059L46.3635 51.8789H5.75957L5.75957 20.5825L28.7978 6.75957Z" fill="#014EA6"/>
<path fill-rule="evenodd" clip-rule="evenodd" d="M70.9676 36.8932L56.5951 56.4635C56.0541 57.2002 55.1955 57.6363 54.2815 57.6387C53.3675 57.641 52.5066 57.2094 51.9618 56.4755L44.1184 45.9105C42.3095 43.4739 46.7186 39.7878 48.7429 42.4773L48.7427 42.4773L54.2615 49.9109L66.3254 33.4839C68.2119 31.1558 72.9347 34.0932 70.9676 36.8932Z" fill="#F85B29"/>
</svg>
